<?xml version="1.0" encoding="UTF-8"?>
<svg width="299px" height="300px" viewBox="0 0 299 300" version="1.1" xmlns="http://www.w3.org/2000/svg" xmlns:xlink="http://www.w3.org/1999/xlink">
    <!-- Generator: Sketch 62 (91390) - https://sketch.com -->
    <title>Combined Shape</title>
    <desc>Created with Sketch.</desc>
    <g id="Page-1" stroke="none" stroke-width="1" fill="none" fill-rule="evenodd">
        <path d="M240.299856,266.004007 C215.381935,285.428611 184.042231,297 150,297 C115.957769,297 84.6180652,285.428611 59.7001444,266.004007 L240.299856,266.004007 Z M293.507482,182.00094 C291.184693,192.464647 287.746543,202.508584 283.324221,212.001594 L104.413851,212.000034 L112.723024,182.000012 L293.507482,182.00094 Z M251.847212,43.9990813 L53.5412915,44.0000107 L10.9435198,197.794286 C5.79461754,182.810073 3,166.731382 3,150 C3,109.407071 19.4535354,72.6570709 46.0553032,46.0553032 C72.6570709,19.4535354 109.407071,3 150,3 C189.536497,3 225.427398,18.6083658 251.847212,43.9990813 Z M287.538134,97.9981134 C291.156178,107.562277 293.805052,117.602601 295.365077,127.999235 L127.678866,127.999982 L135.988035,97.999972 L287.538134,97.9981134 Z" id="Combined-Shape" stroke="#ddd" stroke-width="6" fill="#888"></path>
    </g>
</svg>