<svg width="200" height="200" viewBox="0 0 200 200" fill="none" xmlns="http://www.w3.org/2000/svg">
<path fill-rule="evenodd" clip-rule="evenodd" d="M197.585 121.942C199.166 114.881 200 107.538 200 100C200 44.7715 155.228 0 100 0C44.7715 0 0 44.7715 0 100C0 107.33 0.788666 114.476 2.28577 121.357L79.8442 43.799L99.6432 24L119.442 43.799L197.585 121.942ZM186.41 150.365L99.6432 63.598L13.328 149.913C19.1105 159.933 26.5804 168.855 35.3495 176.294L79.8442 131.799L99.6432 112L119.442 131.799L164.263 176.62C173.067 169.228 180.579 160.347 186.41 150.365ZM139.808 191.763L99.6432 151.598L59.6956 191.546C72.025 196.982 85.66 200 100 200C114.148 200 127.609 197.062 139.808 191.763Z" fill="white"/>
</svg>
