<svg width="200" height="200" viewBox="0 0 200 200" fill="none" xmlns="http://www.w3.org/2000/svg">
<path fill-rule="evenodd" clip-rule="evenodd" d="M159.477 19.6026C142.854 7.28495 122.278 0 100 0C77.9787 0 57.62 7.11803 41.099 19.1788L100.5 78.5798L159.477 19.6026ZM181.241 41.679L122.42 100.5L180.821 158.901C192.882 142.38 200 122.021 200 100C200 78.2357 193.047 58.0954 181.241 41.679ZM158.901 180.821L100.5 122.42L41.679 181.241C58.0954 193.047 78.2357 200 100 200C122.021 200 142.38 192.882 158.901 180.821ZM19.6026 159.477L78.5797 100.5L19.1787 41.0991C7.118 57.6201 0 77.9788 0 100C0 122.278 7.28495 142.854 19.6026 159.477Z" fill="white"/>
</svg>
