<svg width="99" height="34" viewBox="0 0 99 34" fill="none" xmlns="http://www.w3.org/2000/svg">
<path fill-rule="evenodd" clip-rule="evenodd" d="M98.625 28V0H93.345V23.88H91.9193C91.9096 23.2438 91.9047 22.5905 91.9047 21.92V15.92C91.9047 13.7867 91.6513 12.1067 91.1447 10.88C90.638 9.62667 89.5847 8.52 87.9847 7.56H75.3044H75.1843H69.9844V18.08C69.9844 20.32 69.88 21.4267 69 23L73.5489 23C74.4217 21.3317 75.3044 19.4734 75.3044 18V11.7205L85.2647 11.76C86.1713 12.1067 86.6247 12.8 86.6247 13.84V15.84C85.718 15.2 84.7447 14.88 83.7047 14.88H79.9447C77.6247 16.5067 76.4647 18.7333 76.4647 21.56C76.4647 24.36 77.598 26.5067 79.8647 28H82.3847C84.278 28 85.7447 27.52 86.7847 26.56L87.5047 28H90.5H92.0647H93.345H98.625ZM68.8572 28H65C64.1179 27.2833 63.9767 27.0795 63.4832 26.3676C63.2606 26.0464 62.9663 25.6218 62.5 25C61.7969 23.9453 60.6411 22.0403 60.0168 20.2791C59.9028 20.7958 59.7632 21.2894 59.5981 21.76C59.0914 23.28 58.2514 25 57.0781 26.92L54.3981 31.28C53.9181 32.1067 53.4114 32.72 52.8781 33.12C52.3448 33.52 51.6514 33.8133 50.7981 34H44.4781V29.8H48.7981C49.3581 29.64 49.8248 29.36 50.1981 28.96C50.5714 28.56 50.9581 27.9867 51.3581 27.24L51.5981 26.8H48.8381C47.5581 25.76 46.5448 24.36 45.7981 22.6C45.0514 20.8133 44.6781 18.8667 44.6781 16.76V11.7256L37.8043 11.76L41.6043 17.4C43.311 19.8267 44.2577 21.4933 44.4443 22.4C44.551 22.8267 44.6043 23.2667 44.6043 23.72C44.6043 25.6133 43.8977 27.04 42.4843 28H31.924H31.004H27.364L26.644 26.56C25.604 27.52 24.1374 28 22.244 28H20.984H19.724H5.23997C3.37331 26.7467 2.05331 25.2 1.27997 23.36C0.533307 21.4933 0.159973 19.6133 0.159973 17.72C0.159973 13.3467 1.81331 9.96 5.11997 7.56H11.6C13.3866 8.86667 14.6 10.2533 15.24 11.72C15.88 13.1867 16.2 14.6667 16.2 16.16C16.2 17.6533 16.08 18.9333 15.84 20H5.87997C5.95997 20.6133 6.18664 21.32 6.55997 22.12C6.95997 22.8933 7.38664 23.4533 7.83997 23.8L16.6205 23.8697C16.4229 23.1567 16.324 22.3869 16.324 21.56C16.324 18.7333 17.484 16.5067 19.804 14.88H23.564C24.604 14.88 25.5774 15.2 26.484 15.84V13.84C26.484 12.8 26.0307 12.1067 25.124 11.76H17.924V7.56H27.844C29.444 8.52 30.4974 9.62667 31.004 10.88C31.5107 12.1067 31.764 13.7867 31.764 15.92V21.92C31.764 22.5879 31.7689 23.2389 31.7786 23.8728L39.6043 23.8L35.3243 17.52C35.1377 17.2267 34.8443 16.8133 34.4443 16.28C34.071 15.7467 33.7777 15.32 33.5643 15C33.351 14.6533 33.2043 14.4 33.1243 14.24C33.0443 14.08 32.9377 13.88 32.8043 13.64C32.671 13.3733 32.5777 13.1467 32.5243 12.96C32.4177 12.4533 32.3643 12.04 32.3643 11.72C32.3643 9.77333 33.311 8.38667 35.2043 7.56H44.6781H45.7981H49.9981V16.8C49.9981 19.12 50.4648 21.0533 51.3981 22.6H53.7581C54.6381 21.08 55.0781 19.1467 55.0781 16.8V7.56H59.5844H60.3981H64.9044V18.04C64.9044 20.3867 65.12 21.5067 66 23L68.8572 28ZM9.95997 11.76H6.95997C6.55997 12.24 6.22664 12.9067 5.95997 13.76C5.71997 14.6133 5.59997 15.44 5.59997 16.24H11.32C11.3733 15.44 11.2666 14.6133 11 13.76C10.7333 12.88 10.3866 12.2133 9.95997 11.76ZM26.524 18.76H22.244C21.684 19.4533 21.404 20.32 21.404 21.36C21.404 22.4 21.6974 23.2133 22.284 23.8H26.524V18.76ZM86.6647 18.76H82.3847C81.8247 19.4533 81.5447 20.32 81.5447 21.36C81.5447 22.4 81.838 23.2133 82.4247 23.8H86.6647V18.76Z" fill="white"/>
</svg>
