<svg width="841" height="786" viewBox="0 0 841 786" fill="none" xmlns="http://www.w3.org/2000/svg">
<path fill-rule="evenodd" clip-rule="evenodd" d="M560.394 0.771833C559.368 1.48971 558.109 2.00283 557.595 1.91219C557.081 1.82155 555.963 2.33831 555.112 3.06144C553.764 4.20374 553.886 4.35631 556.05 4.2321C559.119 4.0554 561.055 5.72091 559.941 7.57663C559.209 8.79508 558.508 8.68871 554.221 6.70914C546.525 3.15676 532.737 0.799666 525.927 1.87246C521.854 2.51389 517.719 2.30576 511.712 1.15723C504.159 -0.28726 502.842 -0.264602 499.546 1.37384C497.512 2.38312 494.853 3.0342 493.637 2.81975C492.419 2.60512 491.072 2.82445 490.642 3.30705C490.211 3.78966 487.847 3.82978 485.388 3.39619C482.929 2.96259 479.173 3.04045 477.041 3.56824C466.15 6.26719 461.822 7.68206 457.319 10.0125C454.606 11.4167 449.6 12.902 446.195 13.312C442.791 13.7221 439.251 14.4475 438.329 14.9247C437.408 15.4018 435.11 16.1086 433.224 16.496C430.023 17.1522 422.876 21.9438 422.578 23.6327C422.505 24.0473 420.281 25.0037 417.637 25.757C414.993 26.5113 410.981 27.8844 408.722 28.8092C406.463 29.734 404.154 30.5089 403.592 30.5306C403.029 30.5523 401.802 31.0345 400.864 31.6023C399.927 32.169 397.141 33.2385 394.674 33.9784C392.207 34.7182 389.389 36.1223 388.412 37.0994C387.434 38.0755 384.846 39.4225 382.66 40.091C380.474 40.7607 375.217 43.6853 370.978 46.5923C346.219 63.5708 340.722 67.4716 340.602 68.1491C340.41 69.2423 331.116 75.1593 327.991 76.1781C324.617 77.279 311.147 85.4704 310.959 86.536C310.688 88.0723 306.582 90.8656 298.556 94.9733C294.105 97.251 290.403 99.4568 290.329 99.8753C290.207 100.573 279.87 107.934 272.838 112.333C271.229 113.339 269.044 115.054 267.982 116.144C266.919 117.235 262.571 120.682 258.318 123.806C254.064 126.929 250.506 129.928 250.41 130.469C250.214 131.581 236.711 142.404 222.325 152.979C217.031 156.871 212.614 160.543 212.509 161.14C212.404 161.736 211.922 162.307 211.439 162.408C210.64 162.575 204.58 168.661 198.341 175.564C196.99 177.059 195.245 178.534 194.462 178.843C193.681 179.152 192.939 179.935 192.813 180.583C192.689 181.231 189.95 183.718 186.729 186.11C183.508 188.501 180.845 191.002 180.812 191.667C180.687 194.189 180.013 195.064 175.451 198.622C172.87 200.635 170.681 202.685 170.586 203.176C170.492 203.667 168.311 206.027 165.74 208.42C163.169 210.812 160.086 213.966 158.889 215.427C157.691 216.889 155.63 219.264 154.307 220.706C152.983 222.148 151.098 224.329 150.116 225.552C146.347 230.246 144.552 231.994 140.321 235.089C137.916 236.848 135.849 238.856 135.726 239.551C135.604 240.246 132.076 243.717 127.887 247.265C122.743 251.621 119.832 254.888 118.919 257.326C118.176 259.312 116.114 262.279 114.336 263.92C112.558 265.561 109.691 268.711 107.965 270.92C106.24 273.13 103.111 276.625 101.011 278.688C97.5104 282.127 92.4938 287.952 86.6676 295.344C85.4117 296.939 84.0233 298.178 83.5821 298.101C83.1409 298.023 82.6232 298.845 82.4322 299.929C82.2412 301.012 81.6988 301.83 81.2261 301.747C80.7534 301.663 79.7712 303.318 79.0425 305.423C78.3138 307.529 77.3902 309.197 76.9898 309.129C75.7736 308.926 71.7736 314.306 71.3483 316.718C71.129 317.962 70.1877 319.413 69.2562 319.945C68.3248 320.476 67.4291 321.669 67.2657 322.595C67.1023 323.522 66.5772 324.554 66.0999 324.888C65.6227 325.222 63.8435 328.983 62.1476 333.245C59.4509 340.022 50.5473 356.978 48.3974 359.433C47.9779 359.911 46.5959 363.36 45.328 367.096C43.0501 373.806 39.7158 379.955 37.1563 382.164C35.7741 383.357 35.5342 383.929 32.5498 393.183C30.994 398.011 28.0543 405.779 22.2868 420.313C21.7694 421.618 20.1767 425.301 18.7481 428.496C16.998 432.41 15.3018 439.069 13.5505 448.904C12.1196 456.932 9.5998 470.117 7.94956 478.203C6.02377 487.639 4.96563 495.454 4.99691 500.022C5.02364 503.936 4.52636 510.413 3.89249 514.417C3.2578 518.419 2.96782 522.252 3.24765 522.934C3.52766 523.615 3.2394 527.738 2.60928 532.095C0.368042 547.57 0.258809 563.502 2.32017 574.184C2.48713 575.051 2.65615 576.223 2.69655 576.789C2.73596 577.354 3.09464 581.407 3.49357 585.796C3.89168 590.184 3.98691 595.086 3.70421 596.689C3.42168 598.291 3.5344 599.909 3.95473 600.284C4.60233 600.861 5.18891 605.033 5.13774 608.697C5.12989 609.255 5.38356 611.812 5.70027 614.381C6.01796 616.951 6.23717 619.502 6.18697 620.052C6.05405 621.532 7.77682 630.84 9.19747 636.322C9.88052 638.956 10.7201 642.302 11.0644 643.759C11.4076 645.216 12.1809 646.86 12.782 647.413C13.3841 647.966 13.7358 649.214 13.564 650.188C13.3925 651.161 15.0472 656.029 17.2415 661.005C19.4359 665.981 21.1623 670.442 21.0785 670.918C20.9944 671.394 21.5976 672.506 22.4195 673.39C23.2416 674.273 24.2312 675.785 24.6195 676.75C26.5371 681.516 31.9166 691.099 32.7577 691.248C33.2816 691.34 33.626 691.973 33.5215 692.652C33.4178 693.332 34.9168 696.452 36.852 699.585C38.7873 702.719 42.5935 708.919 45.31 713.363C48.0256 717.807 53.0647 724.179 56.5074 727.523C59.95 730.866 62.7221 733.937 62.6661 734.346C62.6111 734.756 63.3917 735.236 64.4021 735.414C65.4125 735.592 67.1522 736.736 68.269 737.958C69.3861 739.178 74.1379 743.027 78.8295 746.51C83.5208 749.993 87.8372 753.403 88.421 754.089C89.676 755.564 94.0481 759.125 98.2285 762.08C99.8718 763.241 102.163 765.249 103.32 766.543C104.669 768.051 107.754 769.555 111.914 770.736C115.484 771.749 119.628 773.412 121.123 774.432C126.338 777.99 132.517 779.821 149.608 782.881C160.535 784.836 169.783 785.947 174.946 785.924C179.417 785.904 187.192 785.862 192.224 785.832C197.256 785.801 202.73 785.391 204.39 784.921C206.05 784.451 209.974 784.224 213.11 784.419C218.751 784.768 221.802 784.033 259.956 773.147C266.718 771.217 273.684 768.838 275.436 767.858C277.187 766.879 279.077 766.159 279.634 766.257C280.191 766.355 282.48 765.489 284.718 764.334C286.957 763.177 290.476 761.735 292.538 761.129C299.966 758.944 305.385 756.782 311.814 753.433C315.413 751.56 319.809 749.573 321.582 749.019C323.355 748.467 327.795 746.198 331.449 743.981C335.103 741.763 340.344 739.25 343.096 738.397C345.847 737.543 350.678 735.171 353.831 733.126C360.242 728.967 367.943 724.964 369.132 725.174C370.944 725.493 385.112 718.755 389.347 715.56C391.876 713.651 398.756 709.619 404.636 706.599C410.516 703.578 424.436 694.767 435.57 687.02C446.705 679.272 456.882 672.435 458.185 671.827C460.491 670.752 476.6 658.719 481.429 654.465C482.752 653.3 484.954 651.845 486.323 651.232C490.171 649.508 506.843 638.022 516.655 630.334C521.515 626.526 530.77 619.386 537.222 614.468C543.675 609.548 551.107 603.677 553.739 601.42C556.371 599.163 564.526 592.733 571.862 587.129C579.197 581.526 586.855 574.949 588.878 572.513C590.901 570.077 593.268 567.366 594.137 566.489C597.089 563.512 605.48 557.671 606.538 557.857C607.116 557.959 607.707 557.378 607.85 556.565C607.993 555.753 608.458 555.149 608.883 555.224C609.308 555.299 610.747 554.068 612.081 552.488C613.416 550.908 614.944 549.422 615.48 549.184C619.003 547.618 632.349 538.559 632.514 537.621C632.626 536.99 635.479 534.412 638.855 531.893C661.739 514.819 668.687 508.934 673.406 502.63C674.329 501.396 675.74 500.122 676.54 499.798C679.839 498.461 686.253 494.117 688.736 491.536C690.196 490.018 696.76 484.238 703.323 478.69C709.886 473.142 718.778 465.475 723.082 461.65C727.387 457.825 733.642 452.365 736.982 449.516C740.322 446.669 745.085 441.577 747.567 438.202C750.048 434.826 753.059 431.744 754.256 431.351C757.442 430.307 758.457 429.397 762.804 423.688C766.66 418.623 771.431 414.278 772.801 414.584C773.183 414.668 774.515 416.014 775.762 417.574L778.031 420.412L774.425 429.238C772.442 434.093 770.339 439.707 769.75 441.713C769.162 443.72 767.792 447.82 766.706 450.823C765.62 453.827 764.075 460.292 763.272 465.19C762.415 470.429 760.976 475.61 759.78 477.775C758.291 480.466 757.034 485.959 755.095 498.248C750.406 527.956 749.391 533.515 745.847 548.912C742.362 564.055 741.995 568.832 743.149 583.976C743.3 585.957 743.538 589.883 743.677 592.7C744.413 607.576 745.012 610.928 747.36 613.321C750.306 616.324 752.983 623.597 752.977 628.581C752.975 630.659 753.835 633.846 754.888 635.665C755.942 637.483 756.748 639.287 756.68 639.672C756.612 640.057 757.395 641.957 758.419 643.894C760.241 647.339 761.505 649.552 766.899 658.736C771.112 665.91 776.686 668.041 788.899 667.145C791.727 666.938 795.722 666.673 797.777 666.556C802.168 666.306 806.596 662.515 804.611 660.705C803.959 660.109 802.318 659.427 800.964 659.188C799.61 658.948 795.368 657.394 791.538 655.733C785.096 652.94 784.164 652.142 779.104 645.086C772.743 636.216 768.173 624.765 767.793 616.754C767.647 613.656 767.23 609.242 766.868 606.944C766.505 604.646 766.158 599.101 766.096 594.623C766.036 590.144 765.951 584.189 765.909 581.389C765.733 569.786 766.356 563.257 769.341 545.439C771.068 535.132 772.512 525.334 772.549 523.665C772.588 521.997 772.912 517.894 773.271 514.547C773.797 509.647 773.514 507.877 771.817 505.451C770.193 503.133 769.881 501.457 770.462 498.16C770.877 495.807 771.659 493.526 772.2 493.09C773.86 491.756 776.962 484.64 776.63 482.93C776.457 482.042 777.36 479.755 778.636 477.846C782.866 471.519 783.289 470.752 784.41 467.37C785.023 465.523 786.467 461.437 787.62 458.289C788.772 455.141 791.306 447.25 793.25 440.752C795.195 434.255 797.711 427.616 798.841 425.999C799.972 424.383 802.204 419.406 803.802 414.94C807.784 403.809 809.063 401.218 814.177 393.923C820.753 384.54 822.129 381.821 824.332 373.857C827.067 363.968 831.559 354.465 836.388 348.356C841.687 341.654 842.096 338.816 838.614 332.919C835.461 327.58 834.241 327.128 825.919 328.213C821.474 328.793 818.636 330.038 813.716 333.564C810.191 336.091 804.877 338.978 801.908 339.98C798.939 340.981 794.676 343.023 792.434 344.516C790.193 346.009 787.98 347.163 787.517 347.082C786.636 346.926 778.023 351.527 773.924 354.342C770.498 356.695 762.496 360.947 761.742 360.814C761.39 360.752 759.712 361.599 758.013 362.696C756.314 363.792 754.325 364.584 753.592 364.455C752.144 364.199 749.111 365.662 741.198 370.432C738.386 372.127 733.242 375.223 729.768 377.313C726.293 379.402 721.315 381.722 718.705 382.467C716.094 383.213 708.301 387.401 701.386 391.776C694.472 396.15 686.406 400.411 683.463 401.244C680.52 402.077 673.014 405.77 666.785 409.45C653.724 417.167 653.976 417.02 645.836 421.595C642.444 423.501 634.714 428.541 628.659 432.795C618.38 440.016 600.69 450.794 595.047 453.273C591.342 454.901 576.87 463.051 569.668 467.566C566.18 469.752 560.917 473.033 557.975 474.855C551.944 478.59 551.333 480.131 553.183 486.951C554.29 491.032 554.952 491.833 558.165 492.977C561.35 494.11 562.618 493.957 567.166 491.889C570.079 490.567 573.46 488.842 574.682 488.056C575.902 487.271 577.279 486.695 577.742 486.777C578.204 486.858 579.197 486.572 579.947 486.141C580.697 485.71 584.078 483.923 587.459 482.17C593.769 478.898 597.419 476.5 600.283 473.741C601.181 472.876 604.151 470.983 606.883 469.533C609.616 468.084 612.713 466.364 613.764 465.712C614.817 465.06 619.638 462.255 624.479 459.478C629.319 456.701 638.39 451.218 644.637 447.293C650.882 443.368 657.47 439.598 659.275 438.914C661.081 438.23 663.221 437.237 664.032 436.706C664.841 436.176 668.797 433.529 672.821 430.825C676.844 428.121 682.705 424.585 685.845 422.967C688.985 421.35 694.299 418.419 697.655 416.456C701.011 414.492 706.413 412.073 709.66 411.079C716.487 408.989 721.479 406.147 728.241 400.499C730.886 398.289 735.943 394.974 739.478 393.13C743.014 391.287 747.043 388.762 748.434 387.518C749.824 386.275 752.965 384.657 755.416 383.923C757.866 383.188 760.632 382.156 761.563 381.628C762.494 381.1 765.904 379.813 769.142 378.767C772.378 377.721 776.077 375.967 777.36 374.869C780.877 371.861 786.286 370.89 788.487 372.871C791.247 375.354 789.898 379.537 785.054 383.522C782.744 385.422 780.436 387.91 779.926 389.052C779.415 390.193 778.423 391.238 777.721 391.374C777.017 391.511 774.239 393.904 771.544 396.692C766.368 402.046 756.795 410.408 749.237 416.175C746.745 418.076 744.625 420.102 744.523 420.675C744.422 421.249 743.955 421.65 743.486 421.567C743.016 421.484 741.053 423.081 739.124 425.114C737.195 427.147 733.648 430.292 731.243 432.101C725.402 436.495 717.95 443.322 715.675 446.365C714.66 447.721 713.534 448.78 713.174 448.716C712.812 448.652 710.227 450.148 707.428 452.04C704.629 453.932 700.813 456.356 698.949 457.426C697.085 458.498 693 461.51 689.872 464.122C686.743 466.734 683.373 468.997 682.384 469.153C680.625 469.43 673.924 475.54 673.645 477.123C673.567 477.563 672.144 478.79 670.482 479.852C668.82 480.912 665.988 483.369 664.188 485.31C660.928 488.827 656.772 492.02 637.385 505.898C631.768 509.919 625.713 514.484 623.93 516.042C622.147 517.599 616.876 521.838 612.218 525.461C607.558 529.085 602.292 533.562 600.513 535.411C595.783 540.327 581.508 551.695 578.659 552.814C577.309 553.344 574.721 555.401 572.906 557.385C571.092 559.369 565.258 564.136 559.943 567.98C548.045 576.583 540.3 582.616 540.164 583.386C540.108 583.706 538.328 585.384 536.207 587.113C534.086 588.843 529.939 592.638 526.991 595.549C523.807 598.689 520.014 601.334 517.652 602.057C515.465 602.727 512.973 603.871 512.116 604.598C511.258 605.325 509.933 605.81 509.172 605.676C508.411 605.542 505.089 607.469 501.791 609.96C498.493 612.45 495.283 614.397 494.656 614.286C493.375 614.06 488.572 617.575 482.354 623.287C480.06 625.396 477.153 627.704 475.896 628.415C474.638 629.128 470.585 631.726 466.888 634.189C463.191 636.652 459.862 638.614 459.489 638.548C459.116 638.482 456.705 640.456 454.134 642.935C451.561 645.414 447.207 648.644 444.457 650.114C438.18 653.469 422.641 665.388 421.317 667.865C420.264 669.835 407.67 676.533 403.534 677.323C402.181 677.582 400.36 678.4 399.485 679.141C398.611 679.883 397.381 680.399 396.752 680.288C396.122 680.177 392.75 682.132 389.256 684.633C383.137 689.013 362.832 700.708 361.695 700.508C360.856 700.36 351.887 705.122 344.327 709.728C340.626 711.983 335.798 714.108 333.598 714.451C331.398 714.793 327.491 716.66 324.915 718.598C322.339 720.536 319.866 721.928 319.42 721.689C318.973 721.452 317.78 721.741 316.768 722.332C315.756 722.922 313.435 723.711 311.609 724.085C309.783 724.458 307.093 725.658 305.63 726.751C304.168 727.845 302.53 728.662 301.99 728.566C301.45 728.471 300.198 728.899 299.207 729.519C298.215 730.138 294.894 731.153 291.825 731.776C288.755 732.398 283.64 734.197 280.458 735.775C275.36 738.3 270.844 739.761 258.704 742.811C256.951 743.252 251.927 744.534 247.54 745.662C243.152 746.789 237.655 748.167 235.322 748.725C230.951 749.77 222.446 752.336 212.507 755.609C209.382 756.638 206.419 757.409 205.926 757.322C205.431 757.235 203.689 757.454 202.054 757.811C195.927 759.144 186.195 758.583 164.431 755.64C149.882 753.672 145.304 752.681 137.043 749.718C131.588 747.761 126.591 745.565 125.939 744.839C125.287 744.111 122.806 742.634 120.426 741.555C108.908 736.335 94.4518 727.033 90.5472 722.33C89.6998 721.308 87.7961 719.228 86.3177 717.707C74.5241 705.57 53.1736 679.034 53.529 676.955C53.639 676.315 52.5658 674.61 51.1449 673.166C49.724 671.722 48.6359 670.119 48.727 669.602C48.8944 668.653 45.4141 659.89 44.4277 658.781C44.1338 658.45 43.3181 655.935 42.6147 653.192C41.9114 650.448 40.9651 647.874 40.5114 647.47C39.4304 646.506 37.6312 640.389 37.9302 638.693C38.0587 637.965 37.7208 637.29 37.1791 637.194C36.6375 637.099 36.3212 636.301 36.4761 635.422C36.6312 634.543 35.343 630.187 33.6136 625.742C31.5863 620.533 30.6705 616.519 31.0358 614.447C31.3477 612.678 31.2684 610.738 30.8597 610.136C30.4503 609.533 30.2463 607.441 30.4059 605.488C30.5646 603.534 30.0096 599.552 29.1727 596.64C27.1376 589.563 26.7872 587.681 26.8342 584.091C26.8558 582.42 26.7531 580.002 26.6064 578.72C26.4092 576.994 26.7441 576.46 27.8973 576.663C29.2002 576.893 29.5932 575.816 30.3071 570.056C30.8214 565.907 30.6972 562.183 29.995 560.677C29.1128 558.787 29.1582 557.902 30.1803 557.035C31.2336 556.14 30.9059 554.953 28.6861 551.625C25.1403 546.309 25.1007 543.671 28.2636 523.188C30.1101 511.225 30.4857 506.336 29.7413 503.952C29.1922 502.194 28.9268 499.715 29.1512 498.442C29.3757 497.169 29.219 495.633 28.8034 495.03C27.1721 492.661 32.8099 466.751 36.8785 457.918C38.2029 455.043 39.5895 449.385 40.4552 443.318C41.627 435.112 42.3022 432.837 44.3906 430.058C45.7772 428.211 47.0799 425.471 47.286 423.968C47.4913 422.464 48.501 418.183 49.529 414.455C51.2763 408.116 53.2461 403.625 60.8976 388.535C62.5879 385.203 64.4372 380.981 65.0062 379.153C65.5764 377.324 66.4248 375.646 66.8905 375.424C67.6325 375.068 69.9805 370.241 75.097 358.545C77.9475 352.031 79.8583 348.975 86.9588 339.567C92.3964 332.363 93.3298 330.691 95.5287 324.233C98.0482 316.832 101.521 311.613 109.839 302.73C112.756 299.615 117.158 294.285 119.618 290.887C122.079 287.489 124.982 284.35 126.069 283.911C127.155 283.472 128.173 282.446 128.329 281.63C128.485 280.814 129.675 279.192 130.973 278.025C132.272 276.858 133.434 275.392 133.556 274.769C133.91 272.961 139.322 266.152 143.356 262.438C146.564 259.484 149.634 256.262 154.616 250.619C160.969 243.424 175.491 228.999 177.975 227.418C182.461 224.561 192.524 213.938 199.791 204.385C203.236 199.857 207.334 195.088 208.897 193.788C210.459 192.488 214.794 188.95 218.529 185.926C222.264 182.9 225.423 179.987 225.55 179.45C225.677 178.914 227.363 177.173 229.297 175.58C231.23 173.988 232.949 171.913 233.115 170.969C233.281 170.027 234.685 168.658 236.235 167.928C237.786 167.198 242.077 163.478 245.772 159.661C249.676 155.629 260.917 146.692 272.608 138.327C283.673 130.409 295.961 121.089 299.914 117.613C303.868 114.138 308.572 110.729 310.369 110.038C312.167 109.346 316.73 107.016 320.508 104.861C324.288 102.704 329.506 99.7728 332.106 98.3455C334.704 96.918 337.666 94.6985 338.685 93.413C339.706 92.1277 345.101 88.2242 350.674 84.739C356.248 81.254 362.123 77.094 363.729 75.4947C365.337 73.8944 368.401 71.8362 370.538 70.9185C372.676 70.0018 376.046 68.2524 378.026 67.0307C385.272 62.565 401.199 53.7184 404.157 52.5167C405.135 52.1185 408.096 50.8129 410.737 49.6154C418.476 46.1049 422.174 45.055 425.033 45.5581C427.061 45.9137 429.927 44.4958 436.759 39.7542C441.732 36.3033 447.711 32.907 450.046 32.2068C452.381 31.5077 456.357 29.5859 458.882 27.9373C461.407 26.2886 464.444 25.1061 465.632 25.3094C466.82 25.5128 468.144 25.2842 468.574 24.8016C469.004 24.319 470.296 24.0898 471.444 24.2922C473.87 24.7201 479.784 24.0325 483.637 22.8741C487.141 21.8215 504.829 20.3862 520.723 19.8652C522.689 19.8007 525.972 19.3225 528.019 18.8029C535.048 17.0164 548.436 15.3357 553.089 15.6546C556.99 15.922 558.856 16.7709 564.577 20.8787C568.333 23.577 573.48 26.4981 576.013 27.3692C581.666 29.3133 585.367 32.8305 594.881 45.301C613.398 69.5692 620.585 80.3561 621.472 85.2088C621.954 87.8415 622.983 92.1627 623.758 94.8127C626.302 103.5 626.182 106.187 622.383 125.5C618.865 143.391 618.567 144.355 614.639 150.536C609.062 159.313 607.169 163.072 606.545 166.613C606.253 168.269 605.24 170.064 604.293 170.604C603.347 171.144 602.726 171.805 602.914 172.073C603.103 172.342 600.776 175.637 597.744 179.394C594.713 183.152 591.088 188.354 589.689 190.952C588.29 193.551 585.788 196.968 584.13 198.546C582.472 200.124 581.028 201.911 580.921 202.516C580.814 203.121 579.799 204.338 578.667 205.221C577.534 206.105 574.504 208.969 571.933 211.587C560.505 223.231 552.666 230.376 542.327 238.572C539.571 240.758 537.206 243.162 537.07 243.913C536.936 244.665 534.836 246.843 532.404 248.755C529.974 250.667 525.793 254.289 523.116 256.804C518.257 261.368 516.165 262.965 510.16 266.698C508.41 267.786 503.144 272.315 498.457 276.764C490.626 284.197 465.619 302.507 463.748 302.178C463.307 302.1 459.611 304.305 455.537 307.076C445.543 313.877 434.339 320.623 430.342 322.248C426.868 323.659 421.761 326.697 412.25 333.007C404.108 338.409 382.389 348.484 375.146 350.219C374.272 350.428 370.545 352.159 366.862 354.066C356.829 359.262 353.194 360.778 350.268 360.988C347.317 361.198 340.789 363.201 334.023 365.97C331.57 366.974 324.639 368.95 318.621 370.359C304.229 373.729 300.984 374.543 289.585 377.641C276.107 381.303 269.851 382.731 268.401 382.476C267.714 382.355 263.88 383.014 259.882 383.941C255.808 384.886 249.849 385.399 246.329 385.108C239.573 384.55 236.753 385.355 229.402 389.933C225.485 392.373 223.689 392.807 218.795 392.498C215.556 392.293 211.575 392.384 209.948 392.698C207.287 393.213 206.956 393.67 206.627 397.281C206.148 402.537 209.668 406.836 213.263 405.384C216.682 404.004 225.552 404.956 231.81 407.374C236.649 409.245 238.392 409.43 245.547 408.833C250.055 408.458 256.397 407.978 259.64 407.767C262.884 407.556 266.386 407.134 267.421 406.83C284.518 401.798 290.543 400.399 295.223 400.375C301.17 400.346 311.927 397.403 320.678 393.411C323.606 392.075 328.763 390.639 332.137 390.22C335.512 389.801 339.558 388.646 341.129 387.654C344.129 385.758 363.707 377.957 364.925 378.172C365.314 378.24 368.088 377.13 371.088 375.704C374.089 374.279 377.021 373.188 377.605 373.28C379.074 373.513 386.194 370.351 396.396 364.935C406.96 359.328 409.429 358.115 417.355 354.635C420.789 353.128 427.286 349.59 431.792 346.773C436.3 343.956 440.416 341.727 440.94 341.819C442.066 342.018 449.986 338.18 455.911 334.564C458.214 333.157 460.381 332.054 460.724 332.112C461.067 332.17 464.407 329.672 468.147 326.562C471.886 323.452 476.43 320.39 478.244 319.76C482.98 318.112 488.017 314.551 490.081 311.39C492.63 307.488 505.046 297.179 516.815 289.195C522.369 285.427 529.018 280.203 531.592 277.585C534.166 274.967 538.483 271.159 541.187 269.123C551.649 261.243 558.489 255.017 561.147 250.957C562.669 248.631 564.373 246.81 564.933 246.909C565.495 247.008 566.094 246.295 566.265 245.324C566.436 244.354 568.956 241.942 571.864 239.965C574.773 237.988 578.672 234.354 580.529 231.889C582.386 229.423 585.462 226.016 587.364 224.316C589.266 222.617 590.877 220.914 590.945 220.532C591.186 219.163 602.145 203.415 603.223 202.889C604.576 202.228 616.277 186.284 616.551 184.726C616.697 183.898 617.828 182.309 619.066 181.195C622.171 178.398 627.112 171.718 628.788 168.049C629.557 166.37 630.93 163.413 631.841 161.479C632.752 159.546 634.03 156.001 634.679 153.602C635.33 151.204 637.363 143.707 639.199 136.943C644.928 115.837 645.599 95.1291 640.91 84.1288C639.624 81.1095 637.929 76.5205 637.143 73.9318C636.359 71.3423 633.86 66.3891 631.589 62.9251C623.768 50.9906 610.41 32.353 607.827 29.7701C606.402 28.3461 603.448 24.9281 601.261 22.1745C599.075 19.4211 595.732 16.352 593.833 15.353C591.934 14.3551 588.975 12.4401 587.257 11.0974C584.457 8.91003 579.812 5.84795 577.933 4.94893C577.546 4.76396 577.14 4.48115 577.028 4.3203C576.714 3.86786 573.517 2.74866 567.636 1.03445C563.414 -0.19646 561.857 -0.252661 560.394 0.771833ZM536.8 485.752C534.895 487.218 534.807 487.612 535.726 490.555C536.935 494.428 540.76 495.589 542.984 492.758C544.222 491.183 544.137 490.77 542.413 489.979C541.033 489.345 540.634 488.512 541.163 487.361C541.599 486.41 541.348 485.317 540.587 484.861C538.97 483.888 539.333 483.803 536.8 485.752Z" fill="#6495ED"/>
</svg>
